<svg width="68" height="91" viewBox="0 0 68 91" fill="none" xmlns="http://www.w3.org/2000/svg">
<path d="M14.2996 72.3365L13.1221 68.0598L12.3135 72.5073L9.10016 72.7842L11.8137 75.2561L11.0054 79.704L13.4909 76.7839L16.2045 79.2562L15.0271 74.9796L17.5126 72.0595L14.2996 72.3365Z" fill="#183041"/>
<path d="M5.44764 51.6819L7.16956 49.6587L4.94325 49.8505L4.12759 46.8876L3.56749 49.9693L1.34119 50.1611L3.22133 51.8737L2.66093 54.9555L4.38315 52.9323L6.2633 54.6453L5.44764 51.6819Z" fill="#183041"/>
<path d="M0.734552 31.2154L1.69345 30.0891L2.73988 31.0424L2.28568 29.3932L3.24428 28.2669L2.00502 28.3739L1.55113 26.7242L1.23925 28.4399L0 28.5465L1.04643 29.4997L0.734552 31.2154Z" fill="#183041"/>
<path d="M60.6083 61.237L59.9239 57.4719L58.9274 61.0919L56.2077 60.8578L58.3116 63.3292L57.315 66.9492L59.6117 64.8565L61.7156 67.3284L61.0312 63.5634L63.3282 61.4711L60.6083 61.237Z" fill="#183041"/>
<path d="M66.1581 38.9014L65.7223 36.5029L65.0872 38.8092L63.3546 38.6598L64.6948 40.2343L64.0601 42.5406L65.5234 41.2077L66.8636 42.7822L66.4278 40.3838L67.8911 39.0504L66.1581 38.9014Z" fill="#183041"/>
<path d="M29.9973 86.4332L29.3549 83.611L28.7124 86.4332H26.6333L28.3152 88.1772L27.6727 90.9999L29.3549 89.2555L31.0367 90.9999L30.3942 88.1772L32.0761 86.4332H29.9973Z" fill="#183041"/>
<path d="M47.6716 82.3677L47.0291 79.5454L46.3867 82.3677H44.3076L45.9897 84.1121L45.3473 86.9344L47.0291 85.1904L48.7113 86.9344L48.0688 84.1121L49.7507 82.3677H47.6716Z" fill="#183041"/>
<path d="M36.6438 3.46582C35.7893 2.70521 34.1365 0.948512 34 0.803467C33.8635 0.948512 32.2108 2.70565 31.3562 3.46582C24.501 9.56775 15.9306 11.7146 9.50146 12.1667C5.18902 66.9614 32.4976 76.969 34 77.4771C35.5025 76.969 62.811 66.9609 58.4986 12.1667C52.0694 11.7146 43.499 9.56775 36.6438 3.46582ZM51.8708 19.1337C43.9079 19.7287 39.7237 22.191 35.7669 25.7437C39.2095 21.4597 43.8293 17.4229 51.8628 17.0686L51.8708 19.1337ZM48.6758 14.2455L48.7333 16.0777C41.6268 17.3761 37.5987 21.855 34.4438 26.1264C35.9481 22.6602 41.1503 15.2455 48.6758 14.2455ZM19.3243 14.2455C26.8501 15.2455 32.0519 22.6602 33.5562 26.1269C30.4013 21.8555 26.3732 17.3766 19.2667 16.0782L19.3243 14.2455ZM16.1372 17.0686C24.1708 17.4229 28.7905 21.4597 32.2331 25.7437C28.2763 22.191 24.0921 19.7287 16.1293 19.1337L16.1372 17.0686ZM53.2 48.217L50.0292 43.6909C49.728 43.261 49.2398 43.2605 48.9384 43.6909C48.6372 44.1208 48.6372 44.8176 48.9384 45.2475L50.5611 47.5638L49.9138 48.4738L43.9009 39.8909C43.5997 39.461 43.1115 39.461 42.8101 39.8909C42.5089 40.3208 42.5089 41.0176 42.8101 41.4475L46.0853 46.123L45.3767 47.1317L40.4047 40.0346C40.1035 39.6047 39.6154 39.6047 39.3139 40.0346C39.0127 40.4645 39.0127 41.1613 39.3139 41.5912L44.2847 48.6866L43.6774 49.5516L39.4981 43.586C39.197 43.1561 38.7088 43.1557 38.4073 43.586C38.1062 44.0159 38.1062 44.7127 38.4073 45.1426L42.5854 51.1065L42.0048 51.9331L40.0347 49.1208C39.7335 48.691 39.2453 48.691 38.9439 49.1208C38.6427 49.5507 38.6427 50.2476 38.9439 50.6775L45.8875 60.589L45.1946 60.676C41.7584 61.3689 37.9036 62.6633 33.9997 64.943C30.0959 62.6633 26.2407 61.3689 22.8045 60.676L22.1116 60.589L29.0553 50.6775C29.3564 50.2476 29.3564 49.5507 29.0553 49.1208C28.7541 48.691 28.2659 48.691 27.9644 49.1208L25.9943 51.9331L25.4137 51.1065L29.5918 45.1426C29.893 44.7127 29.893 44.0159 29.5918 43.586C29.2903 43.1557 28.8021 43.1561 28.501 43.586L24.3217 49.5516L23.7141 48.6866L28.6849 41.5912C28.9861 41.1613 28.9861 40.4645 28.6849 40.0346C28.3838 39.6047 27.8956 39.6047 27.5941 40.0346L22.6221 47.1317L21.9136 46.123L25.1888 41.4475C25.4899 41.0176 25.4899 40.3208 25.1888 39.8909C24.8873 39.461 24.3991 39.461 24.0979 39.8909L18.085 48.4738L17.4377 47.5638L19.0604 45.2475C19.3616 44.8176 19.3616 44.1208 19.0604 43.6909C18.7593 43.2605 18.2708 43.261 17.9696 43.6909L14.7988 48.217L12.1569 20.0472C23.2116 20.0472 28.1022 23.1692 32.7834 27.7927C33.1492 28.154 33.574 28.3344 33.9988 28.3344C34.4236 28.3344 34.8484 28.154 35.2142 27.7927C39.8954 23.1692 44.786 20.0472 55.8407 20.0472L53.2 48.217Z" fill="#FAA813"/>
</svg>
